<svg xmlns="http://www.w3.org/2000/svg" version="1.1" xmlns:xlink="http://www.w3.org/1999/xlink" xmlns:svgjs="http://svgjs.dev/svgjs" width="1000" height="1125" viewBox="0 0 1000 1125"><g transform="matrix(1,0,0,1,0.00007343750002064553,0)"><svg viewBox="0 0 320 360" data-background-color="#161618" preserveAspectRatio="xMidYMid meet" height="1125" width="1000" xmlns="http://www.w3.org/2000/svg" xmlns:xlink="http://www.w3.org/1999/xlink"><g id="tight-bounds" transform="matrix(1,0,0,1,0.000023499999997511622,0)"><svg viewBox="0 0 320 360" height="360" width="320"><g><svg></svg></g><g><svg viewBox="0 0 320 360" height="360" width="320"><g><path transform="translate(-74.99272,-51.79039) scale(4.65793,4.65793)" d="M20.6 59.9l0.8 1-0.4-1.3c-0.1-0.6-0.8 0.1-0.4 0.3M21.5 59.3c0.3 0.5 0.6 1 0.6 1.5 0 0.7 0.6 1 1.1 1.2-0.7-0.8-1.1-3-1.7-2.7M59.9 16.9c1.7 0 3.3-0.2 5.1 0.2 4.4 1.1 8.1 3.3 10.6 6.4l7 11.2c0.3 2.8 0.9 5.9 0.8 9.3 0.7 0 0.6-1 1.4-1.2-0.8 2-1.2 4.5-1.4 7.4-0.5-1.6 0-4 0.1-5.3-0.7 1.1-1.1 0.3-1.1-0.2 0.1-0.8-0.3-0.7-0.6-1-1.1-1-1.8-2.1-2.6-3.8 0.5-1.3 0.6-3.2-1-4.2-0.5-0.3-1.1-0.8-1.4-1.6-0.4-1.1-1.1-2.4-0.9-4.1 0.1-0.5-1.5 1.1-2.4 0.4-3.9-2.7-7.8-5.8-12.5-8.4-2.5 0-4.3-0.9-5.2-2-0.8-1-0.2-2.3 1-2.4 0.7 0 1.5-0.2 2.1 0.2 0.1-0.4 0.5-0.9 1-0.9M50 14.6l0.2 0.1c1 0.2 1.5 1.6 2.6 1.1 0 0.7 0.1 1.4-0.1 1.9-0.3 0.8-1.2 0.8-1.9 0.8-6.7-0.4-10.6 2.4-14.7 4.8-1.1 0.7-2.3 1.2-3.2 2.1-4.3 4-9 7.7-10.1 15.1l-0.9 8.2c-0.1 0.9-1.1 1.8-0.9 2.9l0.7 4.9c-0.7-0.7-1.1 0.2-0.9 0.6 0.1 0.3 0.5 1.3 1.1 0.4 0.8 1.5 1.6 4.4 2.7 5.7 3.4 4 7.8 7.6 11.4 11.2 0.9-0.2 1.6-0.2 1.8-0.8 0.3 0.6-0.3 1.2-0.8 1.3 1.6 1 3.4 1.9 5.8 2.1 3.1 0.2 6 0.7 8.7 1.4 1.4-0.4 2.8-0.6 4.3-0.7 0.5 0 0.8-0.8 1.4-1l0.1-1c0.6 0.9 0.5-0.3 0.1-0.9 0.7 0.6 0.9 1.1 1.2 1.5 0-0.3 0.8-1.4 0.8-0.1l0.2-1.3c0.3-0.2 0.4 1.1 0.7 0.2 0.3-0.9 0.9-0.2 1.5-0.5-0.2 0.4-0.1 1.2 0.6 0.7l0.8-0.7c0.5 1.2 1.3 0.7 1.7 0.5 4.4-2.8 8.8-6.1 13-9.4l-0.1 1.3 0.5-1.6c0.5 0.5 0.9 0.1 1.1-0.2 0.6-1 1.4-2 2.7-2.9-1.6 4.3-3.5 7.7-5.9 10.5l-1 1.2c0 0.7-0.2 1.6-1 1.7-0.4 0.1-1.2-0.2-1.8 0.4-0.3 0.4 0.7 1.2-0.1 0.6-0.7-0.5-1.4 0-2.2 0.2-0.6 0.2 0.4 0.8 0.6 1.2 0.2 0.4 0.4 0.8 0.3 1.3l-1.1-1.2c-1.3 0.7-2.1 2-3.2 3-0.5 0.4-0.3 1.1-0.3 1.7-0.7 0-1.5-0.2-1.9 0.2-0.3 0.4-0.2 1-0.2 1.6-1-0.1-1.1-1.6-2-1.3-0.9 0.2-1.9 0.3-2.7 0.8 0.6 1.2-1 0.5-0.8 0.7-1.5-0.9-2.8-1.6-4.4-1-3.4-1.1-7.6-0.6-10.7-0.2 0-0.5 0.1-1-0.1-1.1-0.2 0.5-0.8 0.3-0.7 0.3-1.9-1.3-3.8-2.1-5.8-3.2-1.8 0.2-3.5-0.7-4-1.2-1.4-1.3-3-0.6-4.3-0.9-2.8-0.7-3.8-3.6-4.1-5.6-0.2-1-1-1.4-1.3-1.3-1.3-4.2-3.3-8-4.9-11.9-0.4-1-0.3-2-0.3-3.1 0.5 0.2 1 0.1 0.9-0.6-0.5-3.3-1.7-5.8-3-8.2 0.7-3.4 0.8-7.4 2.4-10.4 1.4-2.7 4-4.1 5.8-6.4 0.6-0.8 0.6-1.9 1.2-2.6 2-2 4-4.1 6.2-5.9 1-0.8 2.2 0 3.7-0.3 0.5-1.8 2.5-3.4 4.4-2.9 0.8 0.2 2.4-1.9 2.9-2.1 0.8-0.3 0.4 0.8 0.4 1.5 1.9-1.5 4.5-2.3 6.9-3.2" fill="#ffffff" fill-rule="nonzero" stroke="none" stroke-width="1" stroke-linecap="butt" stroke-linejoin="miter" stroke-miterlimit="10" stroke-dasharray="" stroke-dashoffset="0" font-family="none" font-weight="none" font-size="none" text-anchor="none" style="mix-blend-mode: normal" data-fill-palette-color="tertiary"></path></g><g transform="matrix(1,0,0,1,82.40465930642,90)"><svg viewBox="0 0 155.19068138716 180" height="180" width="155.19068138716"><g><svg viewBox="0 0 155.19068138716 180" height="180" width="155.19068138716"><g><svg viewBox="0 0 192 222.69378348679246" height="180" width="155.19068138716"><g transform="matrix(1,0,0,1,0,151.78057593962265)"><svg viewBox="0 0 192 70.9132075471698" height="70.9132075471698" width="192"><g id="textblocktransform"><svg viewBox="0 0 192 70.9132075471698" height="70.9132075471698" width="192" id="textblock"><g><svg viewBox="0 0 192 70.9132075471698" height="70.9132075471698" width="192"><g transform="matrix(1,0,0,1,0,0)"><svg width="192" viewBox="108.65 -35 211.99999999999997 74.8" height="70.9132075471698" data-palette-color="#57c8fc"><svg></svg><svg></svg><g class="undefined-text-0" data-fill-palette-color="primary" id="text-0"><path transform="translate(149,0)" d="M20.15-18.4l-2.8 1.6-0.75-1.3 2.8-1.6c2.3-1.267 3.45-3.283 3.45-6.05v0c0-5.167-3.933-7.75-11.8-7.75v0h-4.6v33.5h-1.5v-35h6.1c4.4 0 7.717 0.807 9.95 2.42 2.233 1.62 3.35 3.897 3.35 6.83v0c0 3.333-1.4 5.783-4.2 7.35zM33.7 0v-1.5h16.3l-10.25-24.15-10.9 25.65h-1.6l12.5-29.5 12.5 29.5zM77.5-29h1.6l-12.5 29.5-12.5-29.5h1.6l10.9 25.65zM87.4 0v-1.5h16.3l-10.25-24.15-10.9 25.65h-1.6l12.5-29.5 12.5 29.5zM113.15 0h-1.5v-29h1.5l16.3 26.25v-26.25h1.5v29h-1.5l-16.3-26.3z" fill="#57c8fc" fill-rule="nonzero" stroke="none" stroke-width="1" stroke-linecap="butt" stroke-linejoin="miter" stroke-miterlimit="10" stroke-dasharray="" stroke-dashoffset="0" font-family="none" font-weight="none" font-size="none" text-anchor="none" style="mix-blend-mode: normal" data-fill-palette-color="primary" opacity="1"></path><path transform="translate(106,39.15)" d="M3.9-26.35v0c0-3.233 0.817-5.567 2.45-7 1.633-1.433 4.283-2.15 7.95-2.15v0c2.567 0 4.633 0.667 6.2 2 1.567 1.333 2.7 3.367 3.4 6.1v0l-4.65 3.5h-2.45l5.4-4.05c-0.7-2.233-1.707-3.8-3.02-4.7-1.32-0.9-2.947-1.35-4.88-1.35v0c-1.333 0-2.457 0.083-3.37 0.25-0.92 0.167-1.837 0.493-2.75 0.98-0.92 0.48-1.613 1.253-2.08 2.32-0.467 1.067-0.7 2.433-0.7 4.1v0c0 1.467 0.677 2.767 2.03 3.9 1.347 1.133 2.987 2.1 4.92 2.9 1.933 0.8 3.877 1.617 5.83 2.45 1.947 0.833 3.597 1.9 4.95 3.2 1.347 1.3 2.02 2.8 2.02 4.5v0c0 3.333-0.823 5.817-2.47 7.45-1.653 1.633-4.48 2.45-8.48 2.45v0c-3.267 0-5.833-0.66-7.7-1.98-1.867-1.313-3.15-3.353-3.85-6.12v0l1.4-0.6c0.667 2.7 1.81 4.573 3.43 5.62 1.613 1.053 3.853 1.58 6.72 1.58v0c3.2 0 5.577-0.617 7.13-1.85 1.547-1.233 2.32-3.417 2.32-6.55v0c0-1.467-0.673-2.767-2.02-3.9-1.353-1.133-3.003-2.1-4.95-2.9-1.953-0.8-3.897-1.617-5.83-2.45-1.933-0.833-3.573-1.9-4.92-3.2-1.353-1.3-2.03-2.8-2.03-4.5zM35.45 0v-1.5h16.3l-10.25-24.15-10.9 25.65h-1.6l12.5-29.5 12.5 29.5zM61.2 0h-1.5v-29h1.5l16.3 26.25v-26.25h1.5v29h-1.5l-16.3-26.3zM84.75-29h22.5v1.5h-10.5v27.5h-1.5v-27.5h-10.5zM131-29v29h-1.5v-14.5h-15v14.5h-1.5v-29h1.5v13h15v-13zM155.1-27.48c-1.133-0.347-2.533-0.52-4.2-0.52-1.667 0-3.067 0.173-4.2 0.52-1.133 0.353-2.177 1.003-3.13 1.95-0.947 0.953-1.653 2.337-2.12 4.15-0.467 1.82-0.7 4.113-0.7 6.88 0 2.767 0.233 5.057 0.7 6.87 0.467 1.82 1.173 3.203 2.12 4.15 0.953 0.953 1.997 1.603 3.13 1.95 1.133 0.353 2.533 0.53 4.2 0.53 1.667 0 3.067-0.177 4.2-0.53 1.133-0.347 2.173-0.997 3.12-1.95 0.953-0.947 1.663-2.33 2.13-4.15 0.467-1.813 0.7-4.103 0.7-6.87 0-2.767-0.233-5.06-0.7-6.88-0.467-1.813-1.177-3.197-2.13-4.15-0.947-0.947-1.987-1.597-3.12-1.95zM159.85-3.05c-1.8 2.367-4.783 3.55-8.95 3.55-4.167 0-7.15-1.183-8.95-3.55-1.8-2.367-2.7-6.183-2.7-11.45 0-5.267 0.9-9.083 2.7-11.45 1.8-2.367 4.783-3.55 8.95-3.55 4.167 0 7.15 1.183 8.95 3.55 1.8 2.367 2.7 6.183 2.7 11.45 0 5.267-0.9 9.083-2.7 11.45zM178.45-29.6v0c4.133 0 7.067 0.917 8.8 2.75v0l-1 1.1c-1.6-1.567-4.133-2.35-7.6-2.35v0c-5.2 0-7.8 2.067-7.8 6.2v0c0 1.6 0.633 2.877 1.9 3.83 1.267 0.947 2.81 1.67 4.63 2.17 1.813 0.5 3.63 1.023 5.45 1.57 1.813 0.553 3.353 1.437 4.62 2.65 1.267 1.22 1.9 2.813 1.9 4.78v0c0 2.3-0.95 4.133-2.85 5.5-1.9 1.367-4.65 2.05-8.25 2.05v0c-1.767 0-3.507-0.233-5.22-0.7-1.72-0.467-2.997-1.15-3.83-2.05v0l1-1.1c1.7 1.567 4.317 2.35 7.85 2.35v0c3.233 0 5.677-0.6 7.33-1.8 1.647-1.2 2.47-2.6 2.47-4.2v0c0-1.667-0.633-3.017-1.9-4.05-1.267-1.033-2.807-1.81-4.62-2.33-1.82-0.513-3.637-1.047-5.45-1.6-1.82-0.547-3.363-1.403-4.63-2.57-1.267-1.167-1.9-2.7-1.9-4.6v0c0-2.567 0.86-4.477 2.58-5.73 1.713-1.247 3.887-1.87 6.52-1.87zM214.65-29v29h-1.5v-14.5h-15v14.5h-1.5v-29h1.5v13h15v-13z" fill="#57c8fc" fill-rule="nonzero" stroke="none" stroke-width="1" stroke-linecap="butt" stroke-linejoin="miter" stroke-miterlimit="10" stroke-dasharray="" stroke-dashoffset="0" font-family="none" font-weight="none" font-size="none" text-anchor="none" style="mix-blend-mode: normal" data-fill-palette-color="primary" opacity="1"></path></g></svg></g></svg></g></svg></g></svg></g><g transform="matrix(1,0,0,1,30.924886884097035,0)"><svg viewBox="0 0 130.15022623180593 147.00307924528303" height="147.00307924528303" width="130.15022623180593"><g><svg xmlns="http://www.w3.org/2000/svg" data-name="Glyph Icon" viewBox="7.21 4 49.58 56" x="0" y="0" height="147.00307924528303" width="130.15022623180593" class="icon-icon-0" data-fill-palette-color="accent" id="icon-0"><path d="M49.13 20.84l-16-9.26V4L55.7 17.05ZM32 50.52L16 41.26V22.74l16-9.26 16 9.26V41.26ZM30.91 11.58l-16 9.26L8.3 17.05 30.91 4ZM13.77 22.74V41.26L7.21 45.05V19Zm1.1 20.42l16 9.26V60L8.3 47Zm18.22 9.26l16-9.26L55.7 47 33.09 60ZM50.23 41.26V22.74L56.79 19v26.1Z" fill="#05ff72" data-fill-palette-color="accent"></path></svg></g></svg></g><g></g></svg></g></svg></g></svg></g></svg></g><defs></defs></svg><rect width="320" height="360" fill="none" stroke="none" visibility="hidden"></rect></g></svg></g></svg>